<svg id="Layer_1" data-name="Layer 1" xmlns="http://www.w3.org/2000/svg" viewBox="0 0 290 27.49"><defs><style>.cls-1{fill:#023b59;}.cls-2{fill:#0076aa;}.cls-2,.cls-3,.cls-4,.cls-5{fill-rule:evenodd;}.cls-3{fill:#fdc42d;}.cls-4{fill:#46babd;}.cls-5{fill:#cb5699;}.cls-6{fill:none;stroke:#e30613;stroke-miterlimit:10;stroke-width:0.25px;}</style></defs><path class="cls-1" d="M117.24,26.63h-2.83a.44.44,0,0,1-.44-.44V4.65A4.36,4.36,0,0,1,118.33.29h2.83a.44.44,0,0,1,.43.44V22.28a4.35,4.35,0,0,1-4.35,4.35"/><path class="cls-1" d="M138.4,21.59v4.63a.44.44,0,0,1-.42.43q-2.47.12-4,.12-4.11,0-5.5-1.39t-1.38-5.5v-8h-2.28a.44.44,0,0,1-.43-.44V7.9a.43.43,0,0,1,.43-.43h2.4V4.65A4.36,4.36,0,0,1,131.61.29h2.72a.44.44,0,0,1,.43.44V7.47H138a.44.44,0,0,1,.44.43v3.52a.44.44,0,0,1-.44.44h-3.22v7a2.59,2.59,0,0,0,.5,1.85,2.7,2.7,0,0,0,1.86.48H138a.44.44,0,0,1,.44.44"/><path class="cls-1" d="M201.92,26V.1H205V10a5.28,5.28,0,0,1,2.51-2.42,7.66,7.66,0,0,1,3.44-.8q6.5,0,6.5,6.87V26h-3.1V13.26a3.71,3.71,0,0,0-1-2.77,3.88,3.88,0,0,0-2.8-1,5.27,5.27,0,0,0-4.13,1.56A6.21,6.21,0,0,0,205,15.39V26Z"/><path class="cls-1" d="M221.08,16.58a10.38,10.38,0,0,1,2.28-7,9.73,9.73,0,0,1,13.58,0,10.29,10.29,0,0,1,2.3,7,10.21,10.21,0,0,1-2.32,7,9.66,9.66,0,0,1-13.54,0,10.37,10.37,0,0,1-2.3-7m3.25,0a8.2,8.2,0,0,0,1.37,4.91,5.67,5.67,0,0,0,8.92,0A8.28,8.28,0,0,0,236,16.57a8.1,8.1,0,0,0-1.41-4.88,5.57,5.57,0,0,0-8.84,0,8.1,8.1,0,0,0-1.41,4.88"/><path class="cls-1" d="M242.86,26V7.23h2.89V10h.1a6.77,6.77,0,0,1,6.06-3.22c2.71,0,4.43,1.07,5.14,3.22a6.46,6.46,0,0,1,5.84-3.22q6.23,0,6.23,5.46V26H266V13.68c0-2.78-1.19-4.17-3.59-4.17a4.9,4.9,0,0,0-3.55,1.27,4.6,4.6,0,0,0-1.33,3.5V26h-3.1V13.68q0-4.17-3.51-4.17a4.69,4.69,0,0,0-3.88,1.85A4.71,4.71,0,0,0,246,14.28V26Z"/><path class="cls-1" d="M286.65,20h3.08q-1.29,6.39-8,6.4a8.34,8.34,0,0,1-6.75-2.78,10.94,10.94,0,0,1-2.21-7.07A10.15,10.15,0,0,1,275,9.65a8.08,8.08,0,0,1,6.53-2.88,7.52,7.52,0,0,1,6.83,3.69A12.19,12.19,0,0,1,290,17.51H276A6,6,0,0,0,277.45,22a5.64,5.64,0,0,0,4.36,1.67q4,0,4.84-3.66M276,14.81h10.78A5.62,5.62,0,0,0,285.13,11a5.19,5.19,0,0,0-3.8-1.49A5,5,0,0,0,277.56,11,6,6,0,0,0,276,14.81"/><path class="cls-2" d="M25.26,26.91c-.61.78-.61.78-1.22,0L21.6,23.78C21,23,21,23,21.6,22.22s1.83-2.35,3-2.35,2.44,1.56,3.05,2.35.61.78,0,1.56l-2.44,3.13"/><path class="cls-3" d="M35.3,23.43C33,26.36,33,26.36,31.79,24.8s-3.66-4.7-4.89-6.26S25.68,17,28.13,13.85,35.45,4.46,39.41,3.29,46.43,6,48,8,49.48,9.93,49,9.74s-1.38-.59-4.12,2.15-7.33,8.6-9.61,11.54"/><path class="cls-4" d="M14,23.43c-2.29-2.94-6.87-8.8-9.61-11.54S.72,9.54.27,9.74-.19,9.93,1.33,8,5.91,2.11,9.88,3.29s8.85,7.43,11.29,10.56,2.44,3.12,1.22,4.69L17.51,24.8c-1.22,1.56-1.22,1.56-3.51-1.37"/><path class="cls-5" d="M30.71,4.69C29.49,3.13,27.05,0,24.61,0h-.06c-2.44,0-4.88,3.13-6.1,4.69s-1.22,1.57,1.4,4.92c.74,1,2.53,3.31,3.9,5.08h0a1,1,0,0,0,.83.44,1,1,0,0,0,.83-.44h0c1.37-1.77,3.16-4.12,3.9-5.08,2.62-3.35,2.62-3.35,1.4-4.92"/><path class="cls-1" d="M74.3,7.47a.43.43,0,0,1,.42.33l2.87,11.51h0l2.13-8.54A4.36,4.36,0,0,1,84,7.47h3.2A.43.43,0,0,1,87.6,8L82.65,23.59a4.35,4.35,0,0,1-4.14,3H74.59a.43.43,0,0,1-.42-.33L71.31,15.4h-.09l-2.6,10.9a.43.43,0,0,1-.42.33H64.28a4.34,4.34,0,0,1-4.13-3L55,8a.44.44,0,0,1,.41-.57h3.43A4.34,4.34,0,0,1,63,10.78l2.11,8.53h.07L68.11,7.8a.44.44,0,0,1,.42-.33Z"/><path class="cls-1" d="M184.12,7.47a.43.43,0,0,1,.42.33l2.87,11.51h0l2.13-8.54a4.35,4.35,0,0,1,4.22-3.3H197a.43.43,0,0,1,.42.57l-4.95,15.55a4.35,4.35,0,0,1-4.15,3h-3.91a.43.43,0,0,1-.42-.33l-2.86-10.9H181l-2.6,10.9a.43.43,0,0,1-.42.33H174.1a4.34,4.34,0,0,1-4.13-3L164.8,8a.44.44,0,0,1,.41-.57h3.42a4.34,4.34,0,0,1,4.23,3.31L175,19.31H175L177.93,7.8a.43.43,0,0,1,.42-.33Z"/><path class="cls-6" d="M109.93,13.82v0"/><path class="cls-1" d="M102.35,14.92a.48.48,0,0,0,.51-.43c0-1.56-1.61-2.94-3.37-2.94a3.31,3.31,0,0,0-3.38,3.23.66.66,0,0,0,0,.14h6M88.49,17.06a10,10,0,0,1,3.58-7.84A12,12,0,0,1,99.5,6.93a10.71,10.71,0,0,1,10.33,6.74,5.66,5.66,0,0,1,.21,1.25,3.64,3.64,0,0,1-3.37,3.83H96.11a3.72,3.72,0,0,0,1.07,2.71,3.6,3.6,0,0,0,2.68,1.09,2.86,2.86,0,0,0,2.73-1.47.44.44,0,0,1,.38-.23h6.44a.42.42,0,0,1,.42.42.54.54,0,0,1,0,.21h0a6.89,6.89,0,0,1-3.65,4.18,14,14,0,0,1-6.44,1.54A12.55,12.55,0,0,1,92,25a10.14,10.14,0,0,1-3.47-7.74Z"/><path class="cls-1" d="M155.22,14.92a.48.48,0,0,0,.5-.43c0-1.56-1.6-2.94-3.37-2.94A3.31,3.31,0,0,0,149,14.78c0,.05,0,.09,0,.14H155m-13.68,2.14a10,10,0,0,1,3.59-7.84,11.94,11.94,0,0,1,7.42-2.29,10.71,10.71,0,0,1,10.33,6.74,5.66,5.66,0,0,1,.21,1.25,3.63,3.63,0,0,1-3.36,3.83H149A3.72,3.72,0,0,0,150,21.46a3.6,3.6,0,0,0,2.68,1.09,2.86,2.86,0,0,0,2.73-1.47.44.44,0,0,1,.38-.23h6.45a.42.42,0,0,1,.36.63h0A6.89,6.89,0,0,1,159,25.66a13.92,13.92,0,0,1-6.44,1.54A12.57,12.57,0,0,1,144.82,25a10.14,10.14,0,0,1-3.47-7.74Z"/><style xmlns="" id="autoconsent-prehide"/></svg>